<svg xmlns="http://www.w3.org/2000/svg" width="64" height="64" viewBox="0 0 64 64"><defs><style>.a{fill:#f75ea1;}</style></defs><path class="a" d="M32,5.333A26.667,26.667,0,1,1,5.333,32,26.7,26.7,0,0,1,32,5.333ZM32,0A32,32,0,1,0,64,32,32,32,0,0,0,32,0Zm0,18.885c4.272,0,4.779.016,6.467.093,4.339.2,6.36,2.253,6.56,6.557.075,1.688.091,2.192.091,6.464s-.016,4.779-.091,6.464c-.2,4.3-2.219,6.363-6.56,6.56-1.688.075-2.192.093-6.467.093s-4.779-.016-6.464-.093c-4.347-.2-6.36-2.264-6.56-6.56-.075-1.685-.093-2.192-.093-6.464s.019-4.779.093-6.464c.2-4.307,2.219-6.363,6.56-6.56,1.685-.077,2.192-.091,6.464-.091ZM32,16c-4.347,0-4.888.019-6.6.1-5.813.267-9.04,3.491-9.307,9.3-.077,1.709-.1,2.253-.1,6.6s.019,4.891.1,6.6c.267,5.811,3.493,9.04,9.307,9.307,1.709.077,2.251.1,6.6.1s4.891-.019,6.6-.1c5.8-.267,9.043-3.491,9.3-9.307.077-1.707.1-2.251.1-6.6s-.019-4.888-.1-6.6c-.261-5.805-3.491-9.04-9.3-9.3-1.709-.08-2.253-.1-6.6-.1Zm0,7.784A8.216,8.216,0,1,0,40.216,32,8.216,8.216,0,0,0,32,23.784Zm0,13.549A5.333,5.333,0,1,1,37.336,32,5.332,5.332,0,0,1,32,37.333Zm8.539-15.792a1.92,1.92,0,1,0,1.923,1.92A1.92,1.92,0,0,0,40.539,21.541Z"/></svg>