<svg xmlns="http://www.w3.org/2000/svg" width="64" height="64" viewBox="0 0 64 64"><defs><style>.a{fill:#5adf08;fill-rule:evenodd;}</style></defs><path class="a" d="M32,0A32,32,0,1,0,64,32,32,32,0,0,0,32,0Zm0,5.333A26.667,26.667,0,1,1,5.333,32,26.7,26.7,0,0,1,32,5.333ZM48,31.651c0-7.16-7.176-12.984-16-12.984S16,24.491,16,31.651c0,6.419,5.693,11.795,13.381,12.811.52.112,1.229.344,1.411.789a3.307,3.307,0,0,1,.051,1.445l-.229,1.371c-.069.405-.32,1.581,1.387.861S41.213,43.5,44.571,39.64A11.547,11.547,0,0,0,48,31.651ZM22.995,34.04V28.5a.31.31,0,0,0-.312-.309H21.56a.312.312,0,0,0-.312.309v6.973l.088.213.008.011.216.085h4.483a.311.311,0,0,0,.312-.312v-1.12a.311.311,0,0,0-.312-.312H22.995Zm19.677-4.1a.31.31,0,0,0,.309-.312V28.5a.31.31,0,0,0-.309-.312H38.187l-.216.088-.008.008-.085.213v6.973l.085.213.011.011.213.085h4.485a.31.31,0,0,0,.309-.309V34.352a.31.31,0,0,0-.309-.312H39.621V32.861h3.051a.312.312,0,0,0,.309-.312V31.427a.312.312,0,0,0-.309-.312H39.621V29.936h3.051ZM28.749,35.784a.312.312,0,0,0,.312-.309V28.5a.312.312,0,0,0-.312-.309H27.627a.312.312,0,0,0-.312.309v6.973a.312.312,0,0,0,.312.309Zm7.725,0a.312.312,0,0,0,.312-.309V28.5a.312.312,0,0,0-.312-.309H35.352a.31.31,0,0,0-.312.309v4.144l-3.195-4.315-.024-.032-.021-.021-.029-.027-.016-.011-.027-.016-.029-.011-.027-.011-.029-.005-.029-.005H30.464a.31.31,0,0,0-.312.309v6.973a.31.31,0,0,0,.312.309h1.123a.312.312,0,0,0,.312-.309V31.333l3.2,4.32.08.077.021.013.024.013.016.005.029.011h.005l.08.011h1.123Z"/></svg>